<svg width="61" height="61" viewBox="0 0 61 61" fill="none" xmlns="http://www.w3.org/2000/svg">
<path d="M30.1724 0C13.477 0 0 13.477 0 30.1724C0 46.8678 13.477 60.3448 30.1724 60.3448C46.8678 60.3448 60.3448 46.8678 60.3448 30.1724C60.3448 13.477 46.8678 0 30.1724 0ZM40.2969 36.408L46.5996 30.1054L40.2299 23.8697C39.8946 23.6015 39.7605 23.1992 39.7605 22.7969C39.7605 22.3276 39.9617 21.9253 40.2969 21.523C40.5651 21.1877 40.9674 21.0536 41.3697 21.0536C41.3697 21.0536 41.3697 21.0536 41.4368 21.0536C41.9061 21.0536 42.3084 21.2548 42.6437 21.59L51.2261 30.1724L42.5766 38.8218C41.9732 39.4253 40.9004 39.4253 40.2299 38.8218C39.9617 38.5536 39.7605 38.1513 39.7605 37.749C39.7605 37.2797 39.8946 36.8103 40.2969 36.408ZM26.1494 43.3812C26.0153 43.3812 25.8142 43.3142 25.613 43.2471C24.8084 42.9789 24.3391 42.0402 24.6073 41.1015L32.6533 18.0364C32.7874 17.6341 33.0556 17.2989 33.4579 17.0977C33.659 16.9636 33.9272 16.9636 34.1284 16.9636C34.3295 16.9636 34.5307 17.0307 34.7318 17.0977C35.5364 17.3659 36.0057 18.3046 35.7375 19.2433L27.6916 42.2414C27.4904 42.9119 26.8199 43.3812 26.1494 43.3812ZM20.0479 23.8697L13.8123 30.1724L20.1149 36.4751C20.4502 36.7433 20.5843 37.1456 20.5843 37.5479C20.5843 38.0172 20.3831 38.4195 20.0479 38.7548C19.7126 39.09 19.3103 39.2912 18.908 39.2912C18.5057 39.2912 18.0364 39.09 17.7682 38.7548L9.11877 30.1724L17.7682 21.523C18.0364 21.1877 18.4387 21.0536 18.841 21.0536C19.3103 21.0536 19.7126 21.2548 20.1149 21.59C20.4502 21.8582 20.5843 22.2605 20.5843 22.6628C20.5843 23.1322 20.3831 23.5345 20.0479 23.8697Z" fill="black"/>
</svg>
