<svg width="146" height="61" viewBox="0 0 370 61" fill="none" xmlns="http://www.w3.org/2000/svg">
<g clip-path="url(#clip0_101_480)">
<path d="M30.1724 0C13.477 0 0 13.477 0 30.1724C0 46.8678 13.477 60.3448 30.1724 60.3448C46.8678 60.3448 60.3448 46.8678 60.3448 30.1724C60.3448 13.477 46.8678 0 30.1724 0ZM40.2969 36.408L46.5996 30.1054L40.2299 23.8697C39.8946 23.6015 39.7605 23.1992 39.7605 22.7969C39.7605 22.3276 39.9617 21.9253 40.2969 21.523C40.5651 21.1877 40.9674 21.0536 41.3697 21.0536C41.3697 21.0536 41.3697 21.0536 41.4368 21.0536C41.9061 21.0536 42.3084 21.2548 42.6437 21.59L51.2261 30.1724L42.5766 38.8218C41.9732 39.4253 40.9004 39.4253 40.2299 38.8218C39.9617 38.5536 39.7605 38.1513 39.7605 37.749C39.7605 37.2797 39.8946 36.8103 40.2969 36.408ZM26.1494 43.3812C26.0153 43.3812 25.8142 43.3142 25.613 43.2471C24.8084 42.9789 24.3391 42.0402 24.6073 41.1015L32.6533 18.0364C32.7874 17.6341 33.0556 17.2989 33.4579 17.0977C33.659 16.9636 33.9272 16.9636 34.1284 16.9636C34.3295 16.9636 34.5307 17.0307 34.7318 17.0977C35.5364 17.3659 36.0057 18.3046 35.7375 19.2433L27.6916 42.2414C27.4904 42.9119 26.8199 43.3812 26.1494 43.3812ZM20.0479 23.8697L13.8123 30.1724L20.1149 36.4751C20.4502 36.7433 20.5843 37.1456 20.5843 37.5479C20.5843 38.0172 20.3831 38.4195 20.0479 38.7548C19.7126 39.09 19.3103 39.2912 18.908 39.2912C18.5057 39.2912 18.0364 39.09 17.7682 38.7548L9.11877 30.1724L17.7682 21.523C18.0364 21.1877 18.4387 21.0536 18.841 21.0536C19.3103 21.0536 19.7126 21.2548 20.1149 21.59C20.4502 21.8582 20.5843 22.2605 20.5843 22.6628C20.5843 23.1322 20.3831 23.5345 20.0479 23.8697Z" fill="black"/>
<path d="M84.7688 21.0172C85.1144 21.0172 85.4081 21.1381 85.65 21.38C85.8919 21.6219 86.0129 21.9157 86.0129 22.2612V24.7839C86.0129 25.1294 85.8919 25.4232 85.65 25.6651C85.4081 25.907 85.1144 26.0279 84.7688 26.0279H81.2095C80.887 26.0279 80.6047 25.907 80.3628 25.6651C80.1209 25.4232 80 25.1294 80 24.7839V22.2612C80 21.9157 80.1209 21.6219 80.3628 21.38C80.6047 21.1381 80.887 21.0172 81.2095 21.0172H84.7688ZM100.216 21.0172C100.538 21.0172 100.82 21.1381 101.062 21.38C101.304 21.6219 101.425 21.9157 101.425 22.2612V24.7839C101.425 25.1294 101.304 25.4232 101.062 25.6651C100.82 25.907 100.538 26.0279 100.216 26.0279H93.2698V45.6562C93.2698 45.9787 93.1489 46.2609 92.907 46.5028C92.6651 46.7447 92.3829 46.8657 92.0603 46.8657H89.3995C89.0539 46.8657 88.7602 46.7447 88.5183 46.5028C88.2764 46.2609 88.1554 45.9787 88.1554 45.6562V22.2612C88.1554 21.9157 88.2764 21.6219 88.5183 21.38C88.7602 21.1381 89.0539 21.0172 89.3995 21.0172H100.216ZM124.475 21.0172C124.797 21.0172 125.074 21.1381 125.304 21.38C125.534 21.6219 125.65 21.9041 125.65 22.2267V45.1724C125.65 45.4949 125.534 45.7771 125.304 46.019C125.074 46.2609 124.797 46.3819 124.475 46.3819H121.848C121.526 46.3819 121.249 46.2609 121.019 46.019C120.789 45.7771 120.673 45.4949 120.673 45.1724V36.1531H109.719V45.1724C109.719 45.4949 109.598 45.7771 109.356 46.019C109.114 46.2609 108.832 46.3819 108.509 46.3819H105.918C105.595 46.3819 105.313 46.2609 105.071 46.019C104.829 45.7771 104.708 45.4949 104.708 45.1724V22.2267C104.708 21.9041 104.829 21.6219 105.071 21.38C105.313 21.1381 105.595 21.0172 105.918 21.0172H108.509C108.832 21.0172 109.114 21.1381 109.356 21.38C109.598 21.6219 109.719 21.9041 109.719 22.2267V31.2114H120.673V22.2267C120.673 21.9041 120.789 21.6219 121.019 21.38C121.249 21.1381 121.526 21.0172 121.848 21.0172H124.475ZM142.652 21.0172C146.43 21.0172 149.528 22.2843 151.947 24.8184C154.32 27.3065 155.507 30.359 155.507 33.976C155.507 37.5929 154.32 40.6454 151.947 43.1335C149.528 45.6677 146.43 46.9348 142.652 46.9348C138.873 46.9348 135.775 45.6677 133.356 43.1335C130.983 40.6454 129.796 37.5929 129.796 33.976C129.796 30.359 130.983 27.3065 133.356 24.8184C135.775 22.2843 138.873 21.0172 142.652 21.0172ZM142.652 41.9932C145.024 41.9932 146.937 41.2329 148.388 39.7124C149.793 38.238 150.496 36.3316 150.496 33.9933C150.496 31.6549 149.782 29.7313 148.353 28.2223C146.925 26.7133 145.024 25.9588 142.652 25.9588C140.279 25.9588 138.378 26.7133 136.95 28.2223C135.521 29.7313 134.807 31.6549 134.807 33.9933C134.807 36.3316 135.51 38.238 136.915 39.7124C138.366 41.2329 140.279 41.9932 142.652 41.9932ZM183.187 21.0172C183.509 21.0172 183.791 21.1381 184.033 21.38C184.275 21.6219 184.396 21.9041 184.396 22.2267V45.1724C184.396 45.4949 184.275 45.7771 184.033 46.019C183.791 46.2609 183.509 46.3819 183.187 46.3819H180.595C180.272 46.3819 179.99 46.2609 179.748 46.019C179.506 45.7771 179.385 45.4949 179.385 45.1724V29.6909L173.027 37.8463C172.797 38.1458 172.486 38.2956 172.094 38.2956C171.702 38.2956 171.391 38.1458 171.161 37.8463L164.664 29.6564V45.1724C164.664 45.4949 164.543 45.7771 164.301 46.019C164.059 46.2609 163.777 46.3819 163.455 46.3819H160.863C160.54 46.3819 160.258 46.2609 160.016 46.019C159.774 45.7771 159.653 45.4949 159.653 45.1724V22.2267C159.653 21.9041 159.774 21.6219 160.016 21.38C160.258 21.1381 160.54 21.0172 160.863 21.0172H163.869C164.261 21.0172 164.584 21.1784 164.837 21.501L172.094 31.1078L179.213 21.501C179.305 21.3397 179.443 21.2188 179.627 21.1381C179.812 21.0575 179.996 21.0172 180.18 21.0172H183.187ZM202.711 21.7429L212.387 44.5849C212.502 44.7692 212.56 44.965 212.56 45.1724C212.56 45.4949 212.445 45.7771 212.214 46.019C211.984 46.2609 211.696 46.3819 211.35 46.3819H208.482C208.229 46.3819 208.004 46.3185 207.808 46.1918C207.613 46.0651 207.469 45.8866 207.376 45.6562L204.854 39.7124H195.074L192.586 45.6562C192.494 45.8866 192.35 46.0651 192.154 46.1918C191.958 46.3185 191.734 46.3819 191.48 46.3819H188.612C188.405 46.3819 188.209 46.33 188.025 46.2264C187.84 46.1227 187.696 45.9902 187.593 45.829C187.489 45.6677 187.426 45.4892 187.403 45.2933C187.38 45.0975 187.414 44.9075 187.506 44.7231L197.251 21.7429C197.343 21.5125 197.487 21.334 197.683 21.2072C197.879 21.0805 198.104 21.0172 198.357 21.0172H201.605C201.859 21.0172 202.083 21.0805 202.279 21.2072C202.475 21.334 202.619 21.5125 202.711 21.7429ZM199.981 28.0322L197.113 34.909H202.849L199.981 28.0322ZM232.292 33.8378C233.259 34.4598 234.002 35.22 234.521 36.1185C235.039 37.017 235.298 38.0191 235.298 39.1249C235.298 41.6591 234.319 43.6288 232.361 45.0342C230.541 46.3012 228.087 46.9348 225 46.9348C221.499 46.9348 218.792 46.1745 216.88 44.654C215.129 43.2487 214.127 41.2675 213.873 38.7103C213.827 38.3417 213.931 38.0306 214.184 37.7772C214.438 37.5238 214.737 37.3971 215.083 37.3971H217.778C218.101 37.3971 218.377 37.5008 218.607 37.7081C218.838 37.9155 218.964 38.1804 218.987 38.5029C219.034 39.1019 219.189 39.6145 219.454 40.0407C219.719 40.4669 220.128 40.8413 220.681 41.1638C221.741 41.7628 223.192 42.0623 225.035 42.0623C226.625 42.0623 227.857 41.878 228.733 41.5094C229.401 41.2099 229.85 40.8067 230.08 40.2999C230.218 40.0234 230.288 39.6663 230.288 39.2286C230.288 38.9522 230.236 38.7218 230.132 38.5375C230.028 38.3532 229.861 38.1804 229.631 38.0191C228.986 37.5814 228.134 37.2013 227.074 36.8788C226.152 36.6023 224.92 36.2798 223.376 35.9112C221.971 35.6117 220.646 35.2085 219.402 34.7017C217.997 34.1027 216.891 33.3885 216.085 32.5592C215.071 31.5455 214.564 30.2208 214.564 28.5851C214.564 26.3044 215.428 24.4613 217.156 23.056C218.838 21.6968 221.268 21.0172 224.447 21.0172C227.627 21.0172 230.126 21.7774 231.946 23.2979C233.651 24.7032 234.561 26.5117 234.676 28.7233C234.722 29.0459 234.619 29.3454 234.365 29.6218C234.089 29.8522 233.801 29.9674 233.501 29.9674H230.806C230.506 29.9674 230.241 29.8695 230.011 29.6737C229.781 29.4778 229.654 29.2302 229.631 28.9307C229.562 28.3317 229.366 27.8364 229.044 27.4447C228.583 26.8688 227.846 26.4426 226.832 26.1661C226.141 25.9588 225.26 25.8551 224.188 25.8551C223.117 25.8551 222.265 25.9646 221.631 26.1834C220.998 26.4023 220.531 26.6384 220.232 26.8918C219.932 27.1453 219.748 27.3987 219.679 27.6521C219.563 28.0437 219.506 28.4123 219.506 28.7579C219.506 28.9422 219.61 29.138 219.817 29.3454C220.232 29.714 220.692 29.9904 221.199 30.1747C221.844 30.4512 222.639 30.7046 223.584 30.935C224.528 31.1654 225.513 31.4073 226.538 31.6607C227.563 31.9141 228.537 32.1905 229.458 32.49C230.541 32.8586 231.486 33.3079 232.292 33.8378ZM262.011 21.9157C263.416 22.4455 264.683 23.2979 265.812 24.4729C268.231 26.9149 269.44 30.0307 269.44 33.8205C269.44 37.6102 268.231 40.7376 265.812 43.2026C264.683 44.3776 263.416 45.23 262.011 45.7599C260.559 46.3588 259.073 46.6583 257.553 46.6583H247.773C247.451 46.6583 247.169 46.5374 246.927 46.2955C246.685 46.0536 246.564 45.7714 246.564 45.4488V42.9608C246.564 42.6152 246.685 42.3215 246.927 42.0796C247.169 41.8377 247.451 41.7167 247.773 41.7167H257.449C259.5 41.7167 261.164 40.968 262.443 39.4705C263.721 37.9731 264.361 36.0955 264.361 33.8378C264.361 31.58 263.721 29.7025 262.443 28.205C261.164 26.7075 259.5 25.9588 257.449 25.9588H247.773C247.451 25.9588 247.169 25.8379 246.927 25.596C246.685 25.3541 246.564 25.0603 246.564 24.7148V22.2267C246.564 21.9041 246.685 21.6219 246.927 21.38C247.169 21.1381 247.451 21.0172 247.773 21.0172H257.553C259.073 21.0172 260.559 21.3167 262.011 21.9157ZM294.079 21.0172C294.402 21.0172 294.684 21.1381 294.926 21.38C295.168 21.6219 295.289 21.9041 295.289 22.2267V35.2891C295.289 38.6527 294.264 41.3884 292.213 43.4964C290.163 45.6043 287.531 46.6583 284.317 46.6583C281.103 46.6583 278.471 45.6043 276.421 43.4964C274.371 41.3884 273.345 38.6527 273.345 35.2891V22.2267C273.345 21.9041 273.466 21.6219 273.708 21.38C273.95 21.1381 274.232 21.0172 274.555 21.0172H277.147C277.469 21.0172 277.751 21.1381 277.993 21.38C278.235 21.6219 278.356 21.9041 278.356 22.2267V35.3583C278.356 37.5008 278.967 39.1365 280.188 40.2653C281.224 41.2329 282.595 41.7167 284.3 41.7167C286.005 41.7167 287.387 41.2329 288.447 40.2653C289.668 39.1134 290.278 37.4777 290.278 35.3583V22.2267C290.278 21.9041 290.393 21.6219 290.624 21.38C290.854 21.1381 291.131 21.0172 291.453 21.0172H294.079ZM312.153 21.0172C314.871 21.0172 317.065 21.7947 318.736 23.3498C320.406 24.9048 321.241 26.9897 321.241 29.6045C321.241 32.2193 320.417 34.3043 318.77 35.8593C317.123 37.4144 314.917 38.1919 312.153 38.1919H305.621V45.1724C305.621 45.4949 305.5 45.7771 305.259 46.019C305.017 46.2609 304.734 46.3819 304.412 46.3819H301.82C301.498 46.3819 301.215 46.2609 300.974 46.019C300.732 45.7771 300.611 45.4949 300.611 45.1724V22.2267C300.611 21.9041 300.732 21.6219 300.974 21.38C301.215 21.1381 301.498 21.0172 301.82 21.0172H312.153ZM305.621 25.8897V33.354H311.98C313.477 33.354 314.56 33.0314 315.228 32.3864C315.896 31.7413 316.23 30.814 316.23 29.6045C316.23 28.3951 315.896 27.4908 315.228 26.8918C314.514 26.2237 313.431 25.8897 311.98 25.8897H305.621ZM341.042 36.6023L346.191 44.5158C346.306 44.7001 346.37 44.9075 346.381 45.1378C346.393 45.3682 346.347 45.5755 346.243 45.7599C346.139 45.9442 345.99 46.0939 345.794 46.2091C345.598 46.3243 345.396 46.3819 345.189 46.3819H342.079C341.872 46.3819 341.676 46.33 341.491 46.2264C341.307 46.1227 341.169 45.9902 341.077 45.829L335.893 37.5699H329.777V45.1724C329.777 45.4949 329.656 45.7771 329.414 46.019C329.172 46.2609 328.89 46.3819 328.567 46.3819H325.975C325.653 46.3819 325.371 46.2609 325.129 46.019C324.887 45.7771 324.766 45.4949 324.766 45.1724V22.2267C324.766 21.9041 324.887 21.6219 325.129 21.38C325.371 21.1381 325.653 21.0172 325.975 21.0172H336.964C339.614 21.0172 341.762 21.7717 343.409 23.2807C345.056 24.7896 345.88 26.8342 345.88 29.4145C345.88 31.0732 345.517 32.4958 344.792 33.6823C344.066 34.8687 343 35.7614 341.595 36.3604C341.503 36.4065 341.353 36.4756 341.146 36.5677L341.042 36.6023ZM329.777 25.8897V32.6974H336.515C338.496 32.6974 339.844 32.133 340.558 31.0041C340.789 30.5894 340.904 30.0595 340.904 29.4145C340.904 28.3317 340.547 27.4793 339.833 26.8573C339.049 26.2122 337.99 25.8897 336.653 25.8897H329.777ZM356.8 18.0799C356.524 18.0799 356.305 17.9647 356.143 17.7343C356.028 17.4809 356.028 17.239 356.143 17.0086L358.286 13.3456C358.447 13.1152 358.655 13 358.908 13H362.64C362.778 13 362.911 13.0403 363.038 13.1209C363.164 13.2016 363.251 13.311 363.297 13.4492C363.343 13.5875 363.354 13.7257 363.331 13.8639C363.308 14.0021 363.239 14.1289 363.124 14.244L359.426 17.8725C359.288 18.0107 359.115 18.0799 358.908 18.0799H356.8ZM368.446 21.0172C368.791 21.0172 369.079 21.1381 369.31 21.38C369.54 21.6219 369.655 21.9041 369.655 22.2267V24.7148C369.655 25.0373 369.54 25.3195 369.31 25.5614C369.079 25.8033 368.791 25.9242 368.446 25.9242H355.383V31.2114H366.925C367.271 31.2114 367.559 31.3324 367.789 31.5743C368.019 31.8162 368.135 32.0984 368.135 32.4209V34.9436C368.135 35.2661 368.019 35.5483 367.789 35.7902C367.559 36.0321 367.271 36.1531 366.925 36.1531H355.383V41.4748H368.446C368.791 41.4748 369.079 41.5958 369.31 41.8377C369.54 42.0796 369.655 42.3618 369.655 42.6843V45.1724C369.655 45.4949 369.54 45.7771 369.31 46.019C369.079 46.2609 368.791 46.3819 368.446 46.3819H351.582C351.259 46.3819 350.977 46.2609 350.735 46.019C350.493 45.7771 350.372 45.4949 350.372 45.1724V22.2267C350.372 21.9041 350.493 21.6219 350.735 21.38C350.977 21.1381 351.259 21.0172 351.582 21.0172H368.446Z" fill="black"/>
</g>
<defs>
<clipPath id="clip0_101_480">
<rect width="369.655" height="60.3448" fill="white"/>
</clipPath>
</defs>
</svg>
